<mxfile host="www.draw.io" modified="2024-03-30T07:54:59.304Z" agent="Mozilla/5.0 (Windows NT 10.0; Win64; x64) AppleWebKit/537.36 (KHTML, like Gecko) Chrome/123.0.0.0 Safari/537.36" etag="Moda-dCZ2OM2FaQ08Xkx" version="24.2.1" type="device">
  <diagram name="Page-1" id="QDJAnESIZHFryty7h4u7">
    <mxGraphModel dx="1513" dy="753" grid="1" gridSize="10" guides="1" tooltips="1" connect="1" arrows="1" fold="1" page="1" pageScale="1" pageWidth="827" pageHeight="1169" math="0" shadow="0">
      <root>
        <mxCell id="0" />
        <mxCell id="1" parent="0" />
        <mxCell id="AdDC_LF-olO9IA-rccEF-10" style="edgeStyle=orthogonalEdgeStyle;rounded=0;orthogonalLoop=1;jettySize=auto;html=1;exitX=0.5;exitY=1;exitDx=0;exitDy=0;entryX=0.5;entryY=0;entryDx=0;entryDy=0;fontSize=16;fontStyle=1" edge="1" parent="1" source="AdDC_LF-olO9IA-rccEF-1" target="AdDC_LF-olO9IA-rccEF-2">
          <mxGeometry relative="1" as="geometry" />
        </mxCell>
        <mxCell id="AdDC_LF-olO9IA-rccEF-11" style="edgeStyle=orthogonalEdgeStyle;rounded=0;orthogonalLoop=1;jettySize=auto;html=1;exitX=0.5;exitY=1;exitDx=0;exitDy=0;entryX=0.5;entryY=0;entryDx=0;entryDy=0;" edge="1" parent="1" source="AdDC_LF-olO9IA-rccEF-1" target="AdDC_LF-olO9IA-rccEF-3">
          <mxGeometry relative="1" as="geometry" />
        </mxCell>
        <mxCell id="AdDC_LF-olO9IA-rccEF-12" style="edgeStyle=orthogonalEdgeStyle;rounded=0;orthogonalLoop=1;jettySize=auto;html=1;exitX=0.5;exitY=1;exitDx=0;exitDy=0;entryX=0.5;entryY=0;entryDx=0;entryDy=0;" edge="1" parent="1" source="AdDC_LF-olO9IA-rccEF-1" target="AdDC_LF-olO9IA-rccEF-7">
          <mxGeometry relative="1" as="geometry" />
        </mxCell>
        <mxCell id="AdDC_LF-olO9IA-rccEF-21" style="edgeStyle=orthogonalEdgeStyle;rounded=0;orthogonalLoop=1;jettySize=auto;html=1;exitX=1;exitY=0.5;exitDx=0;exitDy=0;entryX=1;entryY=0.5;entryDx=0;entryDy=0;" edge="1" parent="1" source="AdDC_LF-olO9IA-rccEF-1" target="AdDC_LF-olO9IA-rccEF-19">
          <mxGeometry relative="1" as="geometry">
            <Array as="points">
              <mxPoint x="330" y="105" />
              <mxPoint x="330" y="495" />
            </Array>
          </mxGeometry>
        </mxCell>
        <mxCell id="AdDC_LF-olO9IA-rccEF-1" value="&lt;span style=&quot;font-size: 16px;&quot;&gt;Input&lt;/span&gt;" style="rounded=0;whiteSpace=wrap;html=1;fillColor=#f5f5f5;fontColor=#333333;strokeColor=#666666;fontSize=16;fontStyle=1" vertex="1" parent="1">
          <mxGeometry x="120" y="90" width="70" height="30" as="geometry" />
        </mxCell>
        <mxCell id="AdDC_LF-olO9IA-rccEF-14" style="edgeStyle=orthogonalEdgeStyle;rounded=0;orthogonalLoop=1;jettySize=auto;html=1;exitX=0.5;exitY=1;exitDx=0;exitDy=0;entryX=0.5;entryY=0;entryDx=0;entryDy=0;" edge="1" parent="1" source="AdDC_LF-olO9IA-rccEF-2" target="AdDC_LF-olO9IA-rccEF-13">
          <mxGeometry relative="1" as="geometry">
            <Array as="points">
              <mxPoint x="35" y="340" />
              <mxPoint x="155" y="340" />
            </Array>
          </mxGeometry>
        </mxCell>
        <mxCell id="AdDC_LF-olO9IA-rccEF-2" value="&lt;span style=&quot;font-size: 16px;&quot;&gt;1 * 1 Conv,&amp;nbsp;&lt;/span&gt;&lt;div&gt;&lt;span style=&quot;font-size: 16px;&quot;&gt;32&lt;/span&gt;&lt;/div&gt;" style="rounded=0;whiteSpace=wrap;html=1;fillColor=#f8cecc;strokeColor=#b85450;fontSize=16;fontStyle=1" vertex="1" parent="1">
          <mxGeometry x="-10" y="160" width="90" height="40" as="geometry" />
        </mxCell>
        <mxCell id="AdDC_LF-olO9IA-rccEF-5" value="" style="edgeStyle=orthogonalEdgeStyle;rounded=0;orthogonalLoop=1;jettySize=auto;html=1;fontSize=16;fontStyle=1" edge="1" parent="1" source="AdDC_LF-olO9IA-rccEF-3" target="AdDC_LF-olO9IA-rccEF-4">
          <mxGeometry relative="1" as="geometry" />
        </mxCell>
        <mxCell id="AdDC_LF-olO9IA-rccEF-3" value="&lt;span style=&quot;font-size: 16px;&quot;&gt;1 * 1 Conv, 32&lt;/span&gt;" style="rounded=0;whiteSpace=wrap;html=1;fillColor=#f8cecc;strokeColor=#b85450;fontSize=16;fontStyle=1" vertex="1" parent="1">
          <mxGeometry x="110" y="160" width="90" height="40" as="geometry" />
        </mxCell>
        <mxCell id="AdDC_LF-olO9IA-rccEF-15" style="edgeStyle=orthogonalEdgeStyle;rounded=0;orthogonalLoop=1;jettySize=auto;html=1;exitX=0.5;exitY=1;exitDx=0;exitDy=0;entryX=0.5;entryY=0;entryDx=0;entryDy=0;" edge="1" parent="1" source="AdDC_LF-olO9IA-rccEF-4" target="AdDC_LF-olO9IA-rccEF-13">
          <mxGeometry relative="1" as="geometry">
            <mxPoint x="200" y="330" as="targetPoint" />
          </mxGeometry>
        </mxCell>
        <mxCell id="AdDC_LF-olO9IA-rccEF-4" value="&lt;span style=&quot;font-size: 16px;&quot;&gt;3 * 3 Depthwise Conv,&amp;nbsp;&lt;/span&gt;" style="rounded=0;whiteSpace=wrap;html=1;fillColor=#f8cecc;strokeColor=#b85450;fontSize=16;fontStyle=1" vertex="1" parent="1">
          <mxGeometry x="95" y="235" width="120" height="55" as="geometry" />
        </mxCell>
        <mxCell id="AdDC_LF-olO9IA-rccEF-9" value="" style="edgeStyle=orthogonalEdgeStyle;rounded=0;orthogonalLoop=1;jettySize=auto;html=1;fontSize=16;fontStyle=1" edge="1" parent="1" source="AdDC_LF-olO9IA-rccEF-7" target="AdDC_LF-olO9IA-rccEF-8">
          <mxGeometry relative="1" as="geometry" />
        </mxCell>
        <mxCell id="AdDC_LF-olO9IA-rccEF-7" value="&lt;span style=&quot;font-size: 16px;&quot;&gt;3 * 3 Conv, 32&lt;/span&gt;" style="rounded=0;whiteSpace=wrap;html=1;fillColor=#f8cecc;strokeColor=#b85450;fontSize=16;fontStyle=1" vertex="1" parent="1">
          <mxGeometry x="230" y="160" width="90" height="40" as="geometry" />
        </mxCell>
        <mxCell id="AdDC_LF-olO9IA-rccEF-16" style="edgeStyle=orthogonalEdgeStyle;rounded=0;orthogonalLoop=1;jettySize=auto;html=1;exitX=0.5;exitY=1;exitDx=0;exitDy=0;entryX=0.5;entryY=0;entryDx=0;entryDy=0;" edge="1" parent="1" source="AdDC_LF-olO9IA-rccEF-8" target="AdDC_LF-olO9IA-rccEF-13">
          <mxGeometry relative="1" as="geometry">
            <Array as="points">
              <mxPoint x="275" y="340" />
              <mxPoint x="155" y="340" />
            </Array>
          </mxGeometry>
        </mxCell>
        <mxCell id="AdDC_LF-olO9IA-rccEF-8" value="&lt;span style=&quot;font-size: 16px;&quot;&gt;3 * 3 Conv, 64&lt;/span&gt;" style="rounded=0;whiteSpace=wrap;html=1;fillColor=#f8cecc;strokeColor=#b85450;fontSize=16;fontStyle=1" vertex="1" parent="1">
          <mxGeometry x="230" y="250" width="90" height="40" as="geometry" />
        </mxCell>
        <mxCell id="AdDC_LF-olO9IA-rccEF-18" value="" style="edgeStyle=orthogonalEdgeStyle;rounded=0;orthogonalLoop=1;jettySize=auto;html=1;" edge="1" parent="1" source="AdDC_LF-olO9IA-rccEF-13" target="AdDC_LF-olO9IA-rccEF-17">
          <mxGeometry relative="1" as="geometry" />
        </mxCell>
        <mxCell id="AdDC_LF-olO9IA-rccEF-13" value="&lt;span style=&quot;font-size: 16px;&quot;&gt;Concatenate&lt;/span&gt;" style="rounded=0;whiteSpace=wrap;html=1;fillColor=#f5f5f5;fontColor=#333333;strokeColor=#666666;fontSize=16;fontStyle=1" vertex="1" parent="1">
          <mxGeometry x="100" y="350" width="110" height="30" as="geometry" />
        </mxCell>
        <mxCell id="AdDC_LF-olO9IA-rccEF-20" value="" style="edgeStyle=orthogonalEdgeStyle;rounded=0;orthogonalLoop=1;jettySize=auto;html=1;" edge="1" parent="1" source="AdDC_LF-olO9IA-rccEF-17" target="AdDC_LF-olO9IA-rccEF-19">
          <mxGeometry relative="1" as="geometry" />
        </mxCell>
        <mxCell id="AdDC_LF-olO9IA-rccEF-17" value="&lt;span style=&quot;font-size: 16px;&quot;&gt;1 *&amp;nbsp; 1Conv,&lt;/span&gt;&lt;div&gt;128&lt;/div&gt;" style="rounded=0;whiteSpace=wrap;html=1;fillColor=#f8cecc;strokeColor=#b85450;fontSize=16;fontStyle=1" vertex="1" parent="1">
          <mxGeometry x="107.5" y="420" width="95" height="40" as="geometry" />
        </mxCell>
        <mxCell id="AdDC_LF-olO9IA-rccEF-24" value="" style="edgeStyle=orthogonalEdgeStyle;rounded=0;orthogonalLoop=1;jettySize=auto;html=1;" edge="1" parent="1" source="AdDC_LF-olO9IA-rccEF-19" target="AdDC_LF-olO9IA-rccEF-22">
          <mxGeometry relative="1" as="geometry" />
        </mxCell>
        <mxCell id="AdDC_LF-olO9IA-rccEF-19" value="Add" style="rounded=0;whiteSpace=wrap;html=1;fillColor=#f5f5f5;strokeColor=#666666;fontSize=16;fontStyle=1;fontColor=#333333;" vertex="1" parent="1">
          <mxGeometry x="118.75" y="480" width="72.5" height="30" as="geometry" />
        </mxCell>
        <mxCell id="AdDC_LF-olO9IA-rccEF-22" value="ReLU" style="rounded=0;whiteSpace=wrap;html=1;fillColor=#dae8fc;strokeColor=#6c8ebf;fontSize=16;fontStyle=1;" vertex="1" parent="1">
          <mxGeometry x="118.75" y="530" width="72.5" height="30" as="geometry" />
        </mxCell>
      </root>
    </mxGraphModel>
  </diagram>
</mxfile>
